<svg id="Capa_1" data-name="Capa 1" xmlns="http://www.w3.org/2000/svg" viewBox="0 0 816.51 157.97"><defs><style>.cls-1{fill:#e8850e;}.cls-2{fill:#324495;}.cls-3{fill:#e8860e;}.cls-4{fill:#304294;}.cls-5{fill:#314394;}.cls-6{fill:#e7850e;}.cls-7{fill:#304293;}.cls-8{fill:#324494;}.cls-9{fill:#2f418f;}.cls-10{fill:#e78711;}.cls-11{fill:#314494;}.cls-12{fill:#324496;}.cls-13{fill:#304090;}.cls-14{fill:#2f4293;}.cls-15{fill:#304192;}.cls-16{fill:#314292;}.cls-17{fill:#304191;}.cls-18{fill:#304291;}.cls-19{fill:#2f4190;}.cls-20{fill:#314291;}.cls-21{fill:#2e4091;}.cls-22{fill:#2f4191;}.cls-23{fill:#314392;}.cls-24{fill:#304292;}.cls-25{fill:#324393;}.cls-26{fill:#324493;}.cls-27{fill:#2a3c8f;}.cls-28{fill:#2e408e;}.cls-29{fill:#2f408e;}.cls-30{fill:#3b4b95;}.cls-31{fill:#374892;}.cls-32{fill:#364791;}.cls-33{fill:#3a4992;}.cls-34{fill:#2c3c89;}.cls-35{fill:#2f428f;}.cls-36{fill:#3d4b95;}.cls-37{fill:#415298;}.cls-38{fill:#3b4c93;}.cls-39{fill:#7482c6;}.cls-40{fill:#e0b77d;}.cls-41{fill:#e0b680;}.cls-42{fill:#fefefe;}.cls-43{fill:#fdfdfc;}.cls-44{fill:#f9fafa;}.cls-45{fill:#fafbfa;}.cls-46{fill:#f8f9fa;}.cls-47{fill:#fafafb;}.cls-48{fill:#f9fafb;}.cls-49{fill:#fff;}</style></defs><title>logo</title><path class="cls-1" d="M986.55,356.53c0,4.89,0,9.78,0,14.68,0,.92-.36,1.11-1.38.88-6.75-1.47-13.38-3.2-19.33-6.26-1.29-.66-2.43-1.51-3.68-2.22a.87.87,0,0,1-.45-.94c0-7.05-.1-14.11.14-21.15a10.22,10.22,0,0,1,5.81-9.07c4.18-2.23,10.76-1.84,14.34.92a10.81,10.81,0,0,1,4,5.82,17.93,17.93,0,0,1,.58,4.71C986.54,348.11,986.55,352.32,986.55,356.53Z" transform="translate(-519 -260.88)"/><path class="cls-1" d="M1006.37,356.43c0-4.38,0-8.77,0-13.16a12.44,12.44,0,0,1,3.94-9.55,10.61,10.61,0,0,1,6.19-2.5c4-.45,7.7,0,10.54,2.37a10.8,10.8,0,0,1,4.06,8.16c.1,3.2.07,6.4.08,9.6,0,3.45,0,6.9,0,10.36a1.34,1.34,0,0,1-.71,1.26,57.42,57.42,0,0,1-20.56,8.2c-.81.16-1.48.56-2.33.71-1.17.21-1.24-.13-1.23-.88,0-3.31,0-6.62,0-9.93Z" transform="translate(-519 -260.88)"/><path class="cls-2" d="M1052.4,319.81c.34,5.62.4,11.22-1.31,16.73-.1.32,0,.72-.55,1a36.48,36.48,0,0,0-2-6.57,28.34,28.34,0,0,0-6.49-8.85,27.31,27.31,0,0,0-11.86-6.15c-.81-.21-1.2-.46-1.34-1.21a52,52,0,0,0-6.51-17.57,48.83,48.83,0,0,0-10.76-12.62,44.21,44.21,0,0,0-10-6.05c1.24-.23,2.24.22,3.27.13,1.18-.72,2.37-.07,3.45.12a65.66,65.66,0,0,1,13.43,3.79c2.66,1.08,5,2.62,7.49,3.9.49.25.49.76.92,1a62.27,62.27,0,0,1,9.18,7.35,46.25,46.25,0,0,1,8.7,11.66c1.43.42,1.48,1.56,1.86,2.46a43.9,43.9,0,0,1,2.11,5.84,10.63,10.63,0,0,1,.41,3.5A5,5,0,0,0,1052.4,319.81Z" transform="translate(-519 -260.88)"/><path class="cls-2" d="M985.43,278.81l2.63-.17a60.45,60.45,0,0,0-5.59,3,45.45,45.45,0,0,0-13,12.87,51.8,51.8,0,0,0-8.24,21c-.1.63-.39.92-1.1,1.17a25.27,25.27,0,0,0-8.42,4.52,26.56,26.56,0,0,0-9,14.87,35.45,35.45,0,0,0-.74,4.24A27.26,27.26,0,0,1,939.8,334a45,45,0,0,1-.49-15.26c.34-1.32,0-2.68.39-4a47.17,47.17,0,0,1,2.37-6.42,1.26,1.26,0,0,1,.87-.62,51.43,51.43,0,0,1,17.32-19.36c.4-1.22,1.8-1.63,2.89-2.27a57.21,57.21,0,0,1,15.79-6.37c1.53-.36,3.1-.63,4.65-1A4,4,0,0,1,985.43,278.81Z" transform="translate(-519 -260.88)"/><path class="cls-1" d="M1030.08,287.5c-2.17-1.19-4.39-2.32-6.55-3.52a35.16,35.16,0,0,0-5.49-2.21,76.74,76.74,0,0,0-13.25-3.11c0-3.16,0-6.32,0-9.48,0-.64.17-.94,1.05-.79a57.91,57.91,0,0,1,12,2.92,75.75,75.75,0,0,1,11.57,5.36c.52.32.8.61.79,1.14C1030.11,281,1030.1,284.27,1030.08,287.5Z" transform="translate(-519 -260.88)"/><path class="cls-3" d="M985.43,278.81c-1.87.39-3.74.76-5.6,1.17A57,57,0,0,0,968,284c-2.71,1.28-5.17,2.9-7.74,4.36q0-4.68,0-9.37c0-.85.7-1.32,1.44-1.77a86,86,0,0,1,11.06-5.29,58.32,58.32,0,0,1,11.51-3.17c1.14-.23,1.36.08,1.33.94C985.46,272.71,985.46,275.76,985.43,278.81Z" transform="translate(-519 -260.88)"/><path class="cls-2" d="M1002.39,274.56c-.16,3.21-2.86,5.67-6.83,5.69s-6.83-2.61-6.87-5.78,3-5.7,6.84-5.71S1002.41,271.29,1002.39,274.56Z" transform="translate(-519 -260.88)"/><path class="cls-4" d="M997.22,312.15a102.71,102.71,0,0,1-23.79-2.57c-2.34-.55-4.56-1.41-6.83-2.13-1.34-.42-.28-1.07-.21-1.61s.62-.43,1.09-.27a104.38,104.38,0,0,0,13.85,3.36,82.68,82.68,0,0,0,27.54.35,76.54,76.54,0,0,0,13.52-3.06c.49-.16,1.29-.88,1.67.2.25.71.66,1.26-.73,1.71A89.67,89.67,0,0,1,997.22,312.15Z" transform="translate(-519 -260.88)"/><path class="cls-4" d="M995.34,301.22a73,73,0,0,1-23.21-3.9c-.57-.19-1.48-.26-.88-1.08.44-.59.58-1.45,2-.89,7.91,3.14,16.35,4.15,25.09,3.87a66,66,0,0,0,14.6-2.12,37.52,37.52,0,0,0,4.37-1.51c1.22-.5,1.33.3,1.69.81s.24.92-.62,1.19A75.49,75.49,0,0,1,995.34,301.22Z" transform="translate(-519 -260.88)"/><path class="cls-5" d="M995.76,290a73.07,73.07,0,0,1-15.38-1.71c-.55-.12-1.52.06-1.51-.65s1.61-1.25,2.4-1.12c1.88.31,3.76.67,5.65.91a66.65,66.65,0,0,0,21.7-.69,2.65,2.65,0,0,1,2.75,1c.5.48-.16.48-.5.55a66.33,66.33,0,0,1-9.35,1.42C999.6,289.81,997.68,289.86,995.76,290Z" transform="translate(-519 -260.88)"/><path class="cls-6" d="M1052.4,319.81a10.69,10.69,0,0,1-.76-3.31,42,42,0,0,0-3.67-10c.9-2,.91-4.05,1.32-6.08.06-.31.07-.64.14-1.2a10.11,10.11,0,0,1,1.37,3.14,40,40,0,0,1,1.74,17A1.53,1.53,0,0,1,1052.4,319.81Z" transform="translate(-519 -260.88)"/><path class="cls-7" d="M995.51,260.88h10.61c.72,0,1.56-.05,1.61.76s-.8.91-1.6.91H984.38c-.73,0-1.42-.09-1.42-.82s.67-.85,1.4-.85h11.15Z" transform="translate(-519 -260.88)"/><path class="cls-8" d="M985.85,282.58c1.91-1.08,3.42-1.82,5.57-1.63a60.81,60.81,0,0,0,8.43,0,7.21,7.21,0,0,1,4.14,1.65A100.85,100.85,0,0,1,985.85,282.58Z" transform="translate(-519 -260.88)"/><path class="cls-9" d="M995.37,263.52h8.32c.75,0,1.58,0,1.55.8s-.88.76-1.61.76H987c-.75,0-1.58,0-1.55-.81s.88-.75,1.6-.75Z" transform="translate(-519 -260.88)"/><path class="cls-10" d="M942.94,307.68c-1.37,3.33-2.85,6.63-3.24,10.16a1.39,1.39,0,0,1-.39.9c-1-5.17.61-13.7,2-16.46C941.88,304.1,941.92,306,942.94,307.68Z" transform="translate(-519 -260.88)"/><path class="cls-11" d="M995.51,266.15c1.69,0,3.39,0,5.09,0,.78,0,1.52.09,1.51.86s-.71.82-1.44.82H990c-.74,0-1.39-.13-1.37-.86s.7-.81,1.43-.81c1.84,0,3.67,0,5.5,0Z" transform="translate(-519 -260.88)"/><path class="cls-3" d="M653.44,316.32c-4.75,1.79-7,5.42-7.05,11.47,0,11.22-.08,22.44,0,33.66,0,2.17-.59,2.83-2.82,2.73-3.57-.16-7.15-.1-10.73,0-1.54,0-2-.48-2-2,.06-12.12-.2-24.24.11-36.35.22-8.91,3.18-16.83,11.55-22,5.74-3.53,12-5,18.59-3,4.3,1.35,8.41,3.44,11.37,6.91,1.26,1.47,1.92,1.39,3.28.16,6.9-6.22,15-9.73,24.44-7.09,8,2.23,14,7,16.7,15.05a43.88,43.88,0,0,1,2,14.63c-.06,10.41-.07,20.82,0,31.23,0,1.92-.53,2.54-2.56,2.45-3.48-.17-7-.16-10.47,0-2,.07-2.61-.46-2.59-2.44.1-11.22,0-22.44,0-33.67a13.63,13.63,0,0,0-2.57-8.72,7.73,7.73,0,0,0-4.48-3c-2.2-1.13-4.4-1.41-6.61,0-4.05,1.17-6,4-6.68,7.79-.63,3.39-.34,6.82-.35,10.23,0,9.11-.07,18.22,0,27.33,0,1.91-.53,2.59-2.57,2.51-3.49-.14-7-.14-10.48,0-2.08.08-2.77-.55-2.76-2.61.1-11.23,0-22.45,0-33.68,0-4.41-.93-8.4-5.26-10.88a12.5,12.5,0,0,0-1.6-.66C657.87,314.83,655.65,315.43,653.44,316.32Z" transform="translate(-519 -260.88)"/><path class="cls-3" d="M861.34,332.72c0-9.59.06-19.18,0-28.77,0-2.34.75-3.09,3.23-3.05,8.25.14,16.54-.35,24.75.17,8.71.55,17.49,1.89,24.53,7.44,9.71,7.66,12.33,17.93,10.78,29.44-1.07,8-5,14.32-11.58,19.42a31.47,31.47,0,0,1-16.39,6.26c-11,1.11-22.1.33-33.16.54-2,0-2.15-.93-2.14-2.44C861.36,352.06,861.34,342.39,861.34,332.72Z" transform="translate(-519 -260.88)"/><path class="cls-12" d="M1191,299.53c9.84.61,18.93,3.32,25.72,10.43,8.08,8.46,10,18.7,7.77,29.77a29,29,0,0,1-9.26,15.91c-9.88,9.1-21.7,10.58-34.32,7.65-21.42-5-29.49-28.18-21-45.63,4.17-8.59,11.3-13.44,20.42-16.34A36,36,0,0,1,1191,299.53Z" transform="translate(-519 -260.88)"/><path class="cls-3" d="M785.29,322.49c0,6,.13,12,0,18-.17,6.21-2.69,11.49-7,16.25-4.69,5.24-10.75,7.31-17.53,8-7.75.78-15.42.24-22.07-4-7-4.5-11.28-11.09-11.58-19.17-.47-12.83-.21-25.68-.28-38.53,0-1.48.46-2.19,2.22-2.13,3.4.13,6.81.17,10.21,0,2.39-.13,3.2.47,3.17,2.92-.16,10.16,0,20.32-.1,30.48a24.24,24.24,0,0,0,1.76,9.74,9.35,9.35,0,0,0,5.62,5.57c9.91,3.42,19.86,0,20.19-12.31.28-10.15,0-20.32.09-30.48,0-6.86-.86-5.78,6-5.86,2.13,0,4.27.17,6.38,0,2.62-.28,3.12.81,3.07,3-.13,6.18,0,12.36,0,18.54Z" transform="translate(-519 -260.88)"/><path class="cls-1" d="M793.36,343.34c0-5.13,0-10.25,0-15.38,0-12.41,6.69-22.24,19-26,6.1-1.9,12-2.58,17.9-1,7.89,2.18,15,5.88,18.74,13.55a30,30,0,0,1,3.12,13.15c0,11.31-.05,22.62,0,33.92,0,2.05-.64,2.69-2.75,2.6-3.48-.14-7-.12-10.47,0-1.93.07-2.44-.56-2.43-2.37.08-10.9-.11-21.8.11-32.7.11-5.69-1.69-10.38-6.42-13.79-2.66-1.91-5.92-2.19-9.24-1.93-7,.55-12,7.53-12.07,14,0,11.31-.08,22.62,0,33.92,0,2.18-.48,3-2.92,2.86-3.48-.21-7-.13-10.47,0-1.65.05-2.2-.39-2.17-2C793.42,355.86,793.36,349.6,793.36,343.34Z" transform="translate(-519 -260.88)"/><path class="cls-2" d="M1125.46,364.62A51.87,51.87,0,0,1,1102.2,359c-1.39-.72-2.29-1.88-3.53-2.71-.72-.49-.6-1-.19-1.68,1.8-2.85,3.62-5.7,5.29-8.62.77-1.34,1.44-.61,2.2-.16a43.47,43.47,0,0,0,17.59,6.13,18.83,18.83,0,0,0,9.53-1c2-.86,3.73-2.15,3.67-4.52a5.38,5.38,0,0,0-3.48-5.19c-4.79-2-10-2.44-15-3.84a50.66,50.66,0,0,1-8.56-3.13c-7-3.41-10.3-8.88-10.1-16.34s4.43-12.31,11.36-15.36a37,37,0,0,1,22.08-2.4,46.68,46.68,0,0,1,15.69,6c1.16.7,1.19,1.23.46,2.28-1.83,2.63-3.59,5.31-5.2,8.06-.84,1.41-1.55,1.59-2.93.65a27.5,27.5,0,0,0-18.66-5c-2.72.27-5.39.76-6.63,3.68-1.17,2.75-.64,4.92,2,6.54a25.39,25.39,0,0,0,7.6,2.77c2.06.49,4.13.94,6.22,1.33a42.44,42.44,0,0,1,12,4.5,16,16,0,0,1,5.92,23.51c-3.57,5.3-8.74,8-14.91,9.26A41.64,41.64,0,0,1,1125.46,364.62Z" transform="translate(-519 -260.88)"/><path class="cls-12" d="M1232.19,343c0-5.85-.24-11.72,0-17.56.73-14.72,10.26-23.63,25.74-24.24,4.25-.17,8.51-.09,12.77-.12a5,5,0,0,1,1,0c1.51.32,3.3-1.58,4.48.17.87,1.28.24,3,.29,4.51.07,1.95-.06,3.91,0,5.86.08,1.42-.48,1.82-1.91,1.8-4.76-.05-9.53.06-14.3,0-8.74-.15-12.54,6.33-12.49,13.45,0,1.61,1.16,1.31,2.13,1.31,7.75,0,15.5.08,23.25,0,2,0,2.66.53,2.54,2.45a67.57,67.57,0,0,0,0,8.05c.1,1.7-.61,2-2.2,2-7.75-.06-15.5,0-23.25-.06-2,0-2.6.59-2.56,2.48.1,6.27,0,12.53.08,18.79,0,1.52-.39,1.95-2,1.91-4-.1-8-.11-12,0-1.65.05-1.93-.52-1.91-2,.09-6.26,0-12.52,0-18.79Z" transform="translate(-519 -260.88)"/><path class="cls-2" d="M1307.54,301c8.6,0,17.2,0,25.8,0,1.68,0,2.23.41,2.16,2-.13,2.84-.12,5.7,0,8.54.07,1.57-.38,2.13-2.11,2.09-5.19-.1-10.39.08-15.58-.08-2-.07-2.34.59-2.33,2.33.07,15,0,30.1.1,45.15,0,2.15-.53,2.81-2.81,2.67-3.48-.2-7-.16-10.47,0-2,.09-2.6-.41-2.59-2.41.1-14.89,0-29.78.11-44.66,0-2.42-.5-3.22-3.18-3.08-4.85.25-9.71,0-14.56.1-1.62,0-2.29-.34-2.22-2,.13-3,0-6,0-9,0-.87-.17-1.73,1.33-1.72,8.77.06,17.54,0,26.31,0Z" transform="translate(-519 -260.88)"/><path class="cls-13" d="M880.57,393.38c0-3.28,0-6.57,0-9.85,0-1.33.18-2.29,1.91-2.21,5.48.25,11-.76,16.28,2.12,6.92,3.76,8.85,12.8,3.35,18.18-3.9,3.82-15,6.22-20.18,4.44-1.39-.47-1.34-1.43-1.35-2.44V393.38Z" transform="translate(-519 -260.88)"/><path class="cls-14" d="M1105.08,389.39a75.06,75.06,0,0,1,0,7.94,10.73,10.73,0,0,1-8.16,8.87c-4.73,1-8.58-.51-11.51-4.53a9,9,0,0,1,0-10.69,10.11,10.11,0,0,1,11.54-3.59c3.91,1.43,4-.16,3.71-2.81-.08-.75,0-1.52,0-2.27-.16-1.67.31-2.59,2.43-2.54,2,.05,2.22,1,2.19,2.42,0,2.4,0,4.8,0,7.2Z" transform="translate(-519 -260.88)"/><path class="cls-15" d="M754,399.86a32.12,32.12,0,0,0,0,3.4c.3,2.77-1.45,3.65-3.65,2.58-1.67-.8-2.67-.4-4.08,0-6.33,2-11.17-.87-13.42-7.06-1.9-5.24,1.82-10.45,7.82-11.65,6.46-1.29,12.28,2.1,13.14,7.77a32.29,32.29,0,0,1,0,4.92Z" transform="translate(-519 -260.88)"/><path class="cls-16" d="M1335.44,400.11a23.41,23.41,0,0,0,0,2.65c.38,3.28-1.36,4.36-4.26,2.88-1.66-.84-2.54,0-3.69.32a10.34,10.34,0,0,1-13.17-6.6c-1.77-4.89,1.14-10.26,6.44-11.9,6-1.86,12.29.81,14,5.89C1335.6,395.57,1335.39,397.85,1335.44,400.11Z" transform="translate(-519 -260.88)"/><path class="cls-17" d="M970.6,400v1.89c0,4.43,0,4.46-4.72,3.26-1.26-.32-2,.49-3,.79-6.53,2-11.27-1.24-13.51-7.17-1.89-5,1.86-10.27,7.61-11.51,6.56-1.42,12.39,1.77,13.41,7.44a46.68,46.68,0,0,1,.35,5.29Z" transform="translate(-519 -260.88)"/><path class="cls-18" d="M699.82,386.9c6.21,0,10.72,3.89,10.77,9.24,0,5.62-5.12,10.42-11.11,10.33-5.47-.09-10.4-4.94-10.4-10.24S693.69,386.89,699.82,386.9Z" transform="translate(-519 -260.88)"/><path class="cls-19" d="M1244.88,396.16c.06,5.62-4.73,10.06-10.61,10.37s-10.78-5.57-10.75-10.33c0-5.33,4.6-9.28,10.73-9.31S1244.81,390.72,1244.88,396.16Z" transform="translate(-519 -260.88)"/><path class="cls-20" d="M799.23,386.94c6.25.11,10.67,4,10.61,9.38-.06,5.58-5.36,10.32-11.31,10.14-5.46-.17-10.35-5.16-10.21-10.4C788.48,390.66,793.06,386.83,799.23,386.94Z" transform="translate(-519 -260.88)"/><path class="cls-21" d="M1060,386.88c6.32-.11,10.82,3.81,11,9.36.18,4.2-4.57,10.45-10.7,10.31-5.66-.13-10.7-4.71-10.79-10.16S1053.93,387,1060,386.88Z" transform="translate(-519 -260.88)"/><path class="cls-18" d="M1016.38,386.9c6.19,0,10.7,3.81,10.78,9.17.09,5.7-4.91,10.44-11,10.4-5.5,0-10.4-4.82-10.44-10.19S1010.2,386.93,1016.38,386.9Z" transform="translate(-519 -260.88)"/><path class="cls-22" d="M1268.3,406.47a10.36,10.36,0,0,1-10.5-10.38c.07-5.39,4.68-9.35,10.73-9.22s10.68,4.11,10.68,9.43C1279.21,400.79,1274.14,407.08,1268.3,406.47Z" transform="translate(-519 -260.88)"/><path class="cls-23" d="M1299.92,404.36c0,1.77-.06,3.54,0,5.31.06,1.41-.48,2.08-2.1,2.1s-2.33-.62-2.06-2c.59-3.07-.91-3.42-3.87-3.23-4.3.27-8.22-2.7-9.83-6.71a9.18,9.18,0,0,1,2.58-10.45,11.84,11.84,0,0,1,11.92-1.51c1.11.54,3.26.94,2.19,2.85-.81,1.47-2,1.43-3.72.56a6.23,6.23,0,0,0-7.53,1,5.46,5.46,0,0,0-1,6.71c1.09,2.32,3.29,3.12,6,3.13,2.57,0,3.44-1.09,3.21-3.26-.14-1.34.22-2.1,2-2.14,2,0,2.28.88,2.23,2.35C1299.87,400.82,1299.92,402.59,1299.92,404.36Z" transform="translate(-519 -260.88)"/><path class="cls-24" d="M937.07,386.91a19,19,0,0,1,6,1c1.07.38,2.13.77,1.38,2.15-.54,1-.92,2.22-2.66,1.48a12.75,12.75,0,0,0-6-.86c-.87.07-1.63.39-1.76,1.28s.61,1.38,1.42,1.6c2.09.57,4.25.95,6.31,1.61,2.35.75,4.09,2.12,4,4.68a6.21,6.21,0,0,1-4.12,6c-3.77,1.5-7.54.64-11.16-.7-1.58-.59-1.63-1.76-1-3.13s1.37-1.57,2.84-1a12.68,12.68,0,0,0,6,1c1.25-.12,2.66-.29,2.91-1.61.28-1.5-1.18-1.8-2.36-2.11s-2.13-.45-3.2-.66c-4.84-1-6.82-2.82-6.36-6S932.53,386.86,937.07,386.91Z" transform="translate(-519 -260.88)"/><path class="cls-20" d="M913.16,394.17h7.27c1.3,0,2,.44,2,1.79s-1,1.59-2.18,1.58c-2.29,0-4.58,0-7,0,1.59,4.12,4.84,5.64,8.61,3.85,1.87-.89,3.29-.93,4.14.6s-.81,2.66-2.09,3.39c-4.18,2.39-9.78,1-13.32-3.16a9,9,0,0,1,.67-12.51c3.65-3.26,10.38-3.75,14.05-1,.74.55,1.79,1,.61,2-1,.84-1.77,1.47-3.52.7C918.42,389.64,916.17,390.36,913.16,394.17Z" transform="translate(-519 -260.88)"/><path class="cls-24" d="M1114,394.18c2.79,0,4.91.06,7,0,1.5-.06,2.31.31,2.35,1.85s-1,1.52-2.18,1.53c-1.37,0-2.75-.09-4.11,0-1,.09-2.46-.73-2.75.75-.2,1,.84,1.86,1.71,2.45a6.28,6.28,0,0,0,6.92.6c1.79-1,3.35-1,4.06.69.64,1.49-.65,2.69-2.2,3.36-3.63,1.56-7.44,1.75-10.54-.56-3.63-2.71-6-6.31-4.63-11,1.1-3.81,3.9-6,8-6.75a12,12,0,0,1,7.59,1c1,.45,2.71.91,1.73,2.4a2.4,2.4,0,0,1-3.42,1C1120.1,389.87,1116.81,389.92,1114,394.18Z" transform="translate(-519 -260.88)"/><path class="cls-25" d="M684.88,399.68c0,1.52,0,3,0,4.56s-.75,2-2.34,1.92-2.27-.6-2.26-2.05c0-2.78.1-5.57,0-8.36s-1.44-5-4.84-5.09c-3.55-.11-5.25,1.82-5.36,5q-.14,4,0,8c.06,1.7-.45,2.57-2.52,2.56s-2.21-1-2.18-2.42c0-2.53-.11-5.07,0-7.6.34-5.64,4.33-9.36,9.78-9.27,5.64.08,9.33,3.66,9.64,9.38.06,1.14,0,2.28,0,3.42Z" transform="translate(-519 -260.88)"/><path class="cls-17" d="M1158,396.63c.14-4.26,1.83-6.88,5.12-8.46a11.67,11.67,0,0,1,11,.11c.82.43,2.42.87,1.5,2.16-.67.94-1.54,2.1-3.34,1.07a6.88,6.88,0,0,0-7.65.23c-.65.44-1.53.93-1.36,1.75.22,1,1.28.66,2,.67,1.36,0,2.73,0,4.1,0s2.36,0,2.44,1.72-1,1.7-2.32,1.66a40.05,40.05,0,0,0-4.1,0c-.85.06-2.12-.57-2.43.67-.23.9.53,1.69,1.26,2.26,2.18,1.67,4.72,2.3,7.21.91,1.82-1,3.27-.89,4.09.66s-.82,2.68-2.14,3.32c-3.23,1.57-6.84,1.81-9.78-.11C1160.3,403.09,1157.61,400.14,1158,396.63Z" transform="translate(-519 -260.88)"/><path class="cls-26" d="M856.49,399.61c1.86-3.85,3.45-7,4.9-10.22.63-1.4,1.23-2.32,3.19-2.27,2.23.05,2.66.63,1.7,2.44-1.44,2.71-2.67,5.53-4.16,8.22-2.08,3.73-4,7.45-3.3,11.84.22,1.34-.32,2.22-2,2.15-1.21,0-2.83.21-2.57-1.53,1.15-7.66-4.42-13.29-6.83-19.86-.37-1-2.28-2.3-.26-3.08,1.51-.59,3.47-.49,4.37,1.64C852.94,392.3,854.59,395.57,856.49,399.61Z" transform="translate(-519 -260.88)"/><path class="cls-17" d="M828.55,399.68c0-1.26,0-2.52,0-3.79-.07-3.08-1.52-5.15-5.11-5.2s-5,2.16-5.21,5.15c-.14,2.52-.06,5.05,0,7.58,0,1.47,0,2.78-2.26,2.74s-2.23-1.39-2.2-2.84c.06-2.78-.08-5.57.21-8.33.51-4.82,4.23-8,9.16-8.12s8.92,2.71,9.68,7.55c.49,3.1.26,6.29.37,9.45.06,1.54-.56,2.29-2.37,2.31s-2.33-.83-2.26-2.33,0-2.78,0-4.17Z" transform="translate(-519 -260.88)"/><path class="cls-27" d="M1149,381.32c2.61,0,5.22.06,7.82,0,1.73-.05,2.87.18,2.91,2.17s-.85,2.5-2.71,2.34c-.41,0-.84.06-1.23,0-4-.69-4.84,1.05-4.6,4.39.31,4.29.08,8.61.09,12.91,0,1.56.18,3-2.4,3-2.78,0-2.17-1.71-2.18-3.13,0-4.42-.24-8.87,0-13.28.2-3.14-.8-4.5-4.28-4-.67.1-1.37,0-2.06,0-2,.13-2.06-1.07-2.14-2.45s.49-2.07,2.09-2C1143.2,381.35,1146.08,381.31,1149,381.32Z" transform="translate(-519 -260.88)"/><path class="cls-28" d="M1215.13,399.52c0-1.39.1-2.79,0-4.16-.25-2.71-1.68-4.53-4.83-4.7-3.38-.18-5.15,1.65-5.5,4.47a70,70,0,0,0-.12,7.94c0,1.45.56,3.16-2.2,3.07s-2.13-1.82-2.14-3.24a63.66,63.66,0,0,1,.18-7.94c.62-5.06,4.35-8.07,9.6-8s8.87,3.19,9.37,8.25c.29,2.88.07,5.8.17,8.7,0,1.6-.58,2.26-2.38,2.28-2,0-2.16-1.07-2.12-2.45S1215.14,400.91,1215.13,399.52Z" transform="translate(-519 -260.88)"/><path class="cls-29" d="M660.61,399.82c0,1.39,0,2.78,0,4.18s-.24,2.16-2,2.14-2.45-.69-2.42-2.28c.06-2.66.07-5.32,0-8-.11-3-1.49-5.19-5.15-5.2s-5,2.17-5.16,5.18c-.12,2.53-.09,5.07,0,7.6,0,1.57-.15,2.68-2.36,2.69-2.44,0-2.09-1.46-2.1-2.82,0-2.4-.09-4.81,0-7.22.27-5.62,4.23-9.33,9.77-9.26s9.27,3.92,9.43,9.55C660.64,397.54,660.61,398.68,660.61,399.82Z" transform="translate(-519 -260.88)"/><path class="cls-20" d="M1189.59,406.47c-4.64.2-7.81-2.32-10.1-7-1.7-3.43-.43-7.53,2.6-10.05a11.71,11.71,0,0,1,12.28-1.52c1,.5,3.2.72,2.28,2.46-.71,1.34-2,2-4,1-2.86-1.5-6-1.17-8.06,1.48a5.16,5.16,0,0,0,.14,7.06,6.15,6.15,0,0,0,8.08,1.35c1.79-1,3-.44,3.8.79,1,1.43-.75,2.3-1.58,3A8,8,0,0,1,1189.59,406.47Z" transform="translate(-519 -260.88)"/><path class="cls-18" d="M769.52,406.48c-5.14,0-9.3-2.89-10.84-7a9,9,0,0,1,3.09-10.32,12.1,12.1,0,0,1,12.71-.82c.75.44,2.55.77,1.58,2.06-.74,1-1.77,2.36-3.71,1.15a6.44,6.44,0,0,0-7-.05c-3,1.79-3.43,4.47-2.13,7.35a6.25,6.25,0,0,0,8,2.81c2-1,4-1.42,4.71.57s-1.48,3.14-3.51,3.67C771.25,406.21,770,406.38,769.52,406.48Z" transform="translate(-519 -260.88)"/><path class="cls-20" d="M721.2,400.63c2-4.45,3.69-7.87,5-11.43.88-2.4,2.85-2.52,4.53-1.87,2,.81.07,2.19-.34,3.14-2,4.57-4.21,9-6.17,13.61a2.87,2.87,0,0,1-3.05,2,2.93,2.93,0,0,1-2.85-1.77c-2.46-5.57-5-11.1-7.58-16.72,3.36-1.12,5-.07,6,2.74C717.93,393.51,719.46,396.61,721.2,400.63Z" transform="translate(-519 -260.88)"/><path class="cls-30" d="M1253.84,393.27c0,3.55,0,7.1,0,10.65,0,1.57-.54,2.29-2.37,2.27s-2.35-.83-2.34-2.36q.06-11,0-22.05c0-1.48.62-2,2.18-2s2.57.32,2.52,2.11c-.11,3.8,0,7.6,0,11.4Z" transform="translate(-519 -260.88)"/><path class="cls-31" d="M635.73,393.69c0,3.27,0,6.55,0,9.83,0,1.5,0,2.71-2.26,2.66-2-.05-2.66-.7-2.65-2.47q.09-10,0-20c0-1.78.73-2.36,2.66-2.42,2.33-.07,2.28,1.09,2.24,2.61C635.68,387.13,635.73,390.41,635.73,393.69Z" transform="translate(-519 -260.88)"/><path class="cls-32" d="M990.15,398.77c0-1.51-.12-3,0-4.53.57-6,7.32-9.36,13-6.43.78.4,2,.76,1.37,1.88-.53.9-1.06,1.91-2.77,1.68-6.57-.87-7.1-.37-7.09,5.86,0,2.27,0,4.54,0,6.81,0,1.65-.94,2.1-2.59,2.13s-2.08-.76-2-2.1c.06-1.76,0-3.53,0-5.3Z" transform="translate(-519 -260.88)"/><path class="cls-17" d="M975.43,399.21a37,37,0,0,1,0-5.67c.87-5.48,7.22-8.41,12.52-5.85.83.4,2.44.68,1.68,2.06a2.44,2.44,0,0,1-2.82,1.59c-6.34-.95-7.13-.26-7.18,5.56,0,2.41,0,4.81,0,7.21,0,1.44-.58,2-2.17,2s-2.31-.49-2.27-2,0-3.28,0-4.93Z" transform="translate(-519 -260.88)"/><path class="cls-18" d="M1031.12,392.66c0-3.42,0-6.83,0-10.25,0-1.48-.14-2.71,2.24-2.63s2.2,1.33,2.19,2.79q0,10.24,0,20.5c0,1.56.19,3.1-2.37,3.08-2.82,0-2-1.9-2-3.24-.08-3.41,0-6.83,0-10.25Z" transform="translate(-519 -260.88)"/><path class="cls-33" d="M1309.65,397c0,2.14,0,4.28,0,6.42,0,1.47.06,2.74-2.2,2.79s-2.5-.88-2.48-2.54q.11-7.17,0-14.34c0-1.59.5-2.25,2.34-2.21s2.34.81,2.3,2.33c-.06,2.51,0,5,0,7.55Z" transform="translate(-519 -260.88)"/><path class="cls-34" d="M1041.16,380h3.4a179.86,179.86,0,0,1,0,25.85c-1.13.6-2.26,1.39-3.49.15A232.48,232.48,0,0,1,1041.16,380Z" transform="translate(-519 -260.88)"/><path class="cls-35" d="M784.34,396.81c0,2.39,0,4.78,0,7.17,0,1.29-.25,2.16-2,2.16s-2.49-.53-2.48-2.17c0-4.9,0-9.81,0-14.71,0-1.7.82-2.12,2.49-2.13s2,.84,2,2.14c-.05,2.51,0,5,0,7.54Z" transform="translate(-519 -260.88)"/><path class="cls-36" d="M804.36,380.7c-1.28,1.92-1.88,4.16-4.5,4.69-.76.16-2.14-.09-1.62-.95,1-1.66.73-4.24,3.37-4.76A2.56,2.56,0,0,1,804.36,380.7Z" transform="translate(-519 -260.88)"/><path class="cls-37" d="M1307.86,385.5c-.82-.08-1.52-.09-1.63-.95-.19-1.58,2.74-5,4.21-4.84.8.12,2.43.05,1.85,1.35C1311.43,383,1310.42,385,1307.86,385.5Z" transform="translate(-519 -260.88)"/><path class="cls-38" d="M784.56,382.54c-.06,1.43-.64,2.54-2.37,2.5a2.34,2.34,0,0,1-2.49-2.8,2.19,2.19,0,0,1,2.57-2.3A2.28,2.28,0,0,1,784.56,382.54Z" transform="translate(-519 -260.88)"/><path class="cls-39" d="M1044.53,405.86l0-25.85c1.43.77.75,2.05.76,3.07q.12,9.85,0,19.71C1045.33,403.83,1045.94,405.1,1044.53,405.86Z" transform="translate(-519 -260.88)"/><path class="cls-39" d="M1041.16,380l-.12,26c-1.42-5.45-.49-11-.57-16.47C1040.43,386.38,1039.53,383.09,1041.16,380Z" transform="translate(-519 -260.88)"/><path class="cls-40" d="M653.44,316.32c2.5-1.91,4.81-1.9,6.64,0A32,32,0,0,0,653.44,316.32Z" transform="translate(-519 -260.88)"/><path class="cls-41" d="M689.72,316.32c1.79-1.9,4.17-1.89,6.61,0A25.22,25.22,0,0,0,689.72,316.32Z" transform="translate(-519 -260.88)"/><path class="cls-42" d="M877.06,332.57c0-5.61,0-11.22,0-16.83,0-1.36.22-2.12,1.92-2.05,4.59.2,9.2-.24,13.78.29,7.26.83,15,6.86,16.09,14.95.78,6.08-.2,11.87-4.39,16.68-3.43,3.94-8.31,5.45-13.52,5.77-3.9.24-7.83,0-11.74.13-1.74.06-2.16-.58-2.14-2.11C877.11,343.79,877.07,338.18,877.06,332.57Z" transform="translate(-519 -260.88)"/><path class="cls-42" d="M1209.29,332c0,14.33-12.26,22.85-25.73,17.78-7-2.62-9.76-8.16-10.84-14.74-1.43-8.71,2.76-17.34,10.74-20.73,8.92-3.78,18.06-.95,23.46,7.85A17.77,17.77,0,0,1,1209.29,332Z" transform="translate(-519 -260.88)"/><path class="cls-43" d="M885.24,393.63c0-.51-.18-1.09,0-1.51,1.05-2.08-2.56-5.77,2.21-6.44,6.81-1,11.67,1.4,12.75,5.69,1.15,4.56-1,8.54-5.27,9.88-2.53.78-5.15.54-7.75.65-1.79.08-2-.95-2-2.2Z" transform="translate(-519 -260.88)"/><path class="cls-44" d="M1100.62,396.36c0,3.32-2.56,5.66-6.2,5.7s-6.18-2.25-6.25-5.61c-.08-3.56,2.46-5.88,6.38-5.82C1098.29,390.7,1100.64,392.91,1100.62,396.36Z" transform="translate(-519 -260.88)"/><path class="cls-44" d="M743.23,390.64c3.76,0,6.18,2.21,6.2,5.61s-2.71,5.93-6.46,5.81-6-2.47-5.94-5.85S739.53,390.61,743.23,390.64Z" transform="translate(-519 -260.88)"/><path class="cls-45" d="M1330.79,396.21c0,3.52-2.31,5.78-6,5.84s-6.27-2.27-6.34-5.61,2.36-5.77,6.08-5.81S1330.76,392.81,1330.79,396.21Z" transform="translate(-519 -260.88)"/><path class="cls-46" d="M959.69,402.06c-3.71-.08-6.09-2.32-6.09-5.73,0-3.61,2.53-5.84,6.49-5.7,3.54.11,6,2.6,6,5.9S963.27,402.14,959.69,402.06Z" transform="translate(-519 -260.88)"/><path class="cls-44" d="M699.64,390.61c3.73,0,6.29,2.15,6.41,5.49s-2.52,6-6.3,6c-3.56,0-6.16-2.41-6.2-5.71S696,390.65,699.64,390.61Z" transform="translate(-519 -260.88)"/><path class="cls-47" d="M1234.16,402.06c-3.61,0-6.12-2.44-6.11-5.84s2.52-5.65,6.28-5.6,6.19,2.34,6.13,5.77S1237.79,402.1,1234.16,402.06Z" transform="translate(-519 -260.88)"/><path class="cls-44" d="M799.2,402.06c-3.67,0-6.26-2.24-6.34-5.55-.08-3.59,2.43-5.94,6.31-5.88,3.69.05,6.15,2.32,6.16,5.68S802.74,402,799.2,402.06Z" transform="translate(-519 -260.88)"/><path class="cls-44" d="M1060.25,390.62c3.67,0,6.23,2.27,6.29,5.59s-2.51,5.76-6.07,5.85c-3.77.1-6.49-2.35-6.48-5.84C1054,392.9,1056.56,390.61,1060.25,390.62Z" transform="translate(-519 -260.88)"/><path class="cls-48" d="M1016.25,390.6c3.89,0,6.49,2.32,6.43,5.85,0,3.31-2.65,5.64-6.27,5.61s-6.2-2.41-6.23-5.68S1012.67,390.64,1016.25,390.6Z" transform="translate(-519 -260.88)"/><path class="cls-47" d="M1268.23,402.06c-3.62-.09-6.14-2.53-6.07-5.89s2.6-5.59,6.38-5.55,6.07,2.32,6,5.83C1274.52,399.78,1271.85,402.15,1268.23,402.06Z" transform="translate(-519 -260.88)"/><rect class="cls-49" y="10.63" width="74.26" height="147.34"/></svg>